<svg xmlns="http://www.w3.org/2000/svg" width="42" height="42" viewBox="0 0 42 42">
  <path fill="#10381E" d="M29.935,17.97l-0.989,6.073h2.275c1.454,0,2.633,1.18,2.633,2.634c0,1.455-1.179,2.634-2.633,2.634h-3.133l-1.966,12.072C36.244,39.096,42,30.842,42,21.007c0-1.032-0.078-2.045-0.221-3.037H29.935zM12.125,24.043l0.989-6.073h-2.15c-1.454,0-2.633-1.18-2.633-2.634s1.179-2.634,2.633-2.634h3.008l1.968-12.087C6.788,2.881,0,11.149,0,21.007c0,1.032,0.078,2.045,0.221,3.037H12.125zM22.753,29.311h-6.151l-0.227,1.395c-0.211,1.292-1.328,2.211-2.595,2.211c-0.141,0-0.283-0.012-0.426-0.035c-1.435-0.234-2.409-1.588-2.175-3.023l0.089-0.547H1.708c3.179,7.381,10.464,12.571,18.978,12.697l2.068-12.697zM24.6,17.97h-6.151l-0.989,6.073h6.151L24.6,17.97zM21.375,0.007c8.488,0.149,15.746,5.331,18.918,12.695h-9.499l0.028-0.175c0.234-1.434-0.74-2.788-2.175-3.022c-1.435-0.233-2.788,0.74-3.022,2.175L25.458,12.702h-6.151L21.375,0.007z" transform="translate(0,0)"/>
</svg>
